<svg width="40" height="48" viewBox="0 0 40 48" fill="none" xmlns="http://www.w3.org/2000/svg">
<path d="M17.6231 4.98456C18.9358 3.67181 21.0642 3.67181 22.3769 4.98456L27.1308 9.73842C28.4435 11.0512 28.4435 13.1795 27.1308 14.4923L22.3769 19.2461C21.0642 20.5589 18.9358 20.5589 17.6231 19.2461L12.8692 14.4923C11.5565 13.1795 11.5565 11.0512 12.8692 9.73842L17.6231 4.98456Z" fill="#0636FF"/>
<path d="M29.5077 16.8692C30.8205 15.5565 32.9488 15.5565 34.2616 16.8692L39.0154 21.6231C40.3282 22.9358 40.3282 25.0642 39.0154 26.3769L34.2616 31.1308C32.9488 32.4435 30.8205 32.4435 29.5077 31.1308L24.7539 26.3769C23.4411 25.0642 23.4411 22.9358 24.7539 21.6231L29.5077 16.8692Z" fill="#0636FF"/>
<path d="M5.73842 16.8692C7.05116 15.5565 9.17954 15.5565 10.4923 16.8692L15.2461 21.6231C16.5589 22.9358 16.5589 25.0642 15.2461 26.3769L10.4923 31.1308C9.17954 32.4435 7.05116 32.4435 5.73842 31.1308L0.984557 26.3769C-0.328186 25.0642 -0.328186 22.9358 0.984557 21.6231L5.73842 16.8692Z" fill="#0636FF"/>
<path d="M17.6231 28.7539C18.9358 27.4411 21.0642 27.4411 22.3769 28.7539L27.1308 33.5077C28.4435 34.8205 28.4435 36.9488 27.1308 38.2616L22.3769 43.0154C21.0642 44.3282 18.9358 44.3282 17.6231 43.0154L12.8692 38.2616C11.5565 36.9488 11.5565 34.8205 12.8692 33.5077L17.6231 28.7539Z" fill="#0636FF"/>
</svg>
